# xmcd CD database file
#
# Track frame offsets:
#	150
#	20501
#	39528
#	67170
#	94695
#	107139
#	134346
#	151608
#	172385
#
# Disc length: 2712 seconds
#
# Revision: 0
# Processed by: cddbd v1.5.1PL0 Copyright (c) Steve Scherf et al.
# Submitted via: CDex 1.51
#
DISCID=780a9609
DTITLE=Into the Freylakh - The Shape of Klez to Come
DYEAR=2004
DGENRE=Jazz
TTITLE0=Cuando el Rey Nimrod
TTITLE1=Twirly Moustache
TTITLE2=Tzadik Katamar
TTITLE3=Chewbacca Wookie
TTITLE4=Gloib Mir
TTITLE5=Firn Die Mekhatonim Aheim(2)
TTITLE6=Yiddishe Mame
TTITLE7=Freylero Pardo
TTITLE8=Miserlou
EXTD=YEAR: 2004
EXTT0=
EXTT1=
EXTT2=
EXTT3=
EXTT4=
EXTT5=
EXTT6=
EXTT7=
EXTT8=
PLAYORDER=
